<svg id="Layer_1" data-name="Layer 1" xmlns="http://www.w3.org/2000/svg" viewBox="0 0 71.1 83.4"><defs><style>.cls-1{fill:#f4e6c8;}.cls-1,.cls-2,.cls-3,.cls-4,.cls-5{stroke:#333;stroke-miterlimit:10;stroke-width:3.5px;}.cls-2{fill:none;}.cls-3{fill:#e15c64;}.cls-4{fill:#fff;}.cls-5{fill:#f7b26a;}.cls-6{font-size:7px;fill:#342e2c;font-family:BasementGrotesque-Black, Basement Grotesque;font-weight:800;}</style></defs><path class="cls-1" d="M83.9,26.8a4.82,4.82,0,0,0-3-4.4,6.62,6.62,0,0,0-4.8-4.5,6.46,6.46,0,0,0-6.4-5.4,6.67,6.67,0,0,0-6.3,4.6,7,7,0,0,0-2.5-.5,5.66,5.66,0,0,0-1.8.3,6.65,6.65,0,0,0-5.8-3.4,5.38,5.38,0,0,0-2.2.4,6.55,6.55,0,0,0-5.9-3.8,6.48,6.48,0,0,0-6.5,6.1,7.27,7.27,0,0,0-2.9-.7,7.77,7.77,0,0,0-1.6.2A6.53,6.53,0,0,0,22.7,20a3.4,3.4,0,0,0,.1,1A6.46,6.46,0,0,0,19,22.3a6.62,6.62,0,0,0-2.7,5.3A6.36,6.36,0,0,0,19,32.9,7.07,7.07,0,0,0,21.5,34H80.6a8.29,8.29,0,0,0,.8-2.8A5.4,5.4,0,0,0,83.9,26.8Z" transform="translate(-14.55 -8.35)"/><path class="cls-2" d="M42.6,29.4a5.29,5.29,0,0,1,.2-7.3,5.31,5.31,0,0,1,7.3.6,4.38,4.38,0,0,1-.3,5.5" transform="translate(-14.55 -8.35)"/><path class="cls-2" d="M51,25a4,4,0,0,1,4.5-1.7,4.08,4.08,0,0,1,2.8,3.9" transform="translate(-14.55 -8.35)"/><path class="cls-1" d="M76,17.9c-.9,0-7.3-.5-7.2,6" transform="translate(-14.55 -8.35)"/><path class="cls-3" d="M36.6,90h-7a2.92,2.92,0,0,1-2.9-2.6L21.2,33.8H33.1Z" transform="translate(-14.55 -8.35)"/><path class="cls-4" d="M46.2,90H36.6L33.2,33.8H45Z" transform="translate(-14.55 -8.35)"/><path class="cls-3" d="M55.8,90H46.2L45,33.8H56.9Z" transform="translate(-14.55 -8.35)"/><path class="cls-4" d="M65.3,90H55.8l1.1-56.2H68.8Z" transform="translate(-14.55 -8.35)"/><path class="cls-3" d="M72.3,90h-7l3.4-56.2H80.6L75.1,87.4A2.76,2.76,0,0,1,72.3,90Z" transform="translate(-14.55 -8.35)"/><path class="cls-5" d="M56.9,66.7h-12a5,5,0,0,1-5-5V57.2a5,5,0,0,1,5-5h12a5,5,0,0,1,5,5v4.5A5,5,0,0,1,56.9,66.7Z" transform="translate(-14.55 -8.35)"/><text class="cls-6" transform="translate(28.89 52.98)">N/A</text></svg>